<svg width="17" height="16" viewBox="0 0 17 16" fill="none" xmlns="http://www.w3.org/2000/svg">
<path d="M13.6667 9.62503C13.9428 9.62503 14.1667 9.84889 14.1667 10.125V11.25C14.1667 11.5262 14.3905 11.75 14.6667 11.75H15.7917C16.0678 11.75 16.2917 11.9739 16.2917 12.25V12.6667C16.2917 12.9428 16.0678 13.1667 15.7917 13.1667H14.6667C14.3905 13.1667 14.1667 13.3906 14.1667 13.6667V14.7917C14.1667 15.0678 13.9428 15.2917 13.6667 15.2917H13.25C12.9739 15.2917 12.75 15.0678 12.75 14.7917V13.6667C12.75 13.3906 12.5262 13.1667 12.25 13.1667H11.125C10.8489 13.1667 10.625 12.9428 10.625 12.6667V12.25C10.625 11.9739 10.8489 11.75 11.125 11.75H12.25C12.5262 11.75 12.75 11.5262 12.75 11.25V10.125C12.75 9.84889 12.9739 9.62503 13.25 9.62503H13.6667ZM8.50001 8.20836C7.72084 8.20836 7.08334 8.84586 7.08334 9.62503C7.08334 10.4042 7.72084 11.0417 8.50001 11.0417C9.27918 11.0417 9.91668 10.4042 9.91668 9.62503C9.91668 8.84586 9.27918 8.20836 8.50001 8.20836ZM9.27564 13.1951C9.33735 13.5338 9.09632 13.875 8.75205 13.875H3.89584C3.24418 13.875 2.69876 13.4359 2.53584 12.8409L0.746657 6.31104C0.740013 6.28679 0.730782 6.2633 0.723667 6.23918C0.708343 6.18724 0.708344 6.1353 0.708344 6.08336C0.708344 5.69378 1.02709 5.37503 1.41668 5.37503H4.54245C4.70938 5.37503 4.8653 5.29172 4.95809 5.15296L7.91209 0.735445C7.97597 0.638186 8.0629 0.558219 8.16513 0.502653C8.26737 0.447087 8.38175 0.417645 8.49811 0.416944C8.61447 0.416243 8.7292 0.444305 8.8321 0.498635C8.935 0.552965 9.02288 0.631879 9.08793 0.728361L12.042 5.15267C12.1347 5.2916 12.2907 5.37503 12.4578 5.37503H15.5833C15.9729 5.37503 16.2917 5.69378 16.2917 6.08336L16.2748 6.23557C16.2719 6.26156 16.267 6.28728 16.26 6.31249L15.7501 8.17352C15.6649 8.4844 15.3123 8.63259 15.0129 8.51321C14.934 8.48177 14.854 8.45227 14.773 8.42501C14.497 8.33217 14.3176 8.04654 14.3948 7.76574L14.4886 7.42422C14.5761 7.10592 14.3366 6.79169 14.0065 6.79169H2.99987C2.66998 6.79169 2.43051 7.10554 2.51761 7.42371L3.79511 12.0904C3.8546 12.3077 4.05207 12.4584 4.27736 12.4584H8.70834C8.98449 12.4584 9.20536 12.683 9.23924 12.9571C9.24913 13.0371 9.26131 13.1165 9.27564 13.1951ZM7.03491 4.59768C6.81339 4.92996 7.05159 5.37503 7.45093 5.37503H9.54908C9.94843 5.37503 10.1866 4.92996 9.96511 4.59768L8.91603 3.02407C8.71812 2.7272 8.2819 2.7272 8.08398 3.02407L7.03491 4.59768Z" fill="black"/>
</svg>
