<svg width="22" height="22" viewBox="0 0 22 22" fill="none" xmlns="http://www.w3.org/2000/svg">
  <path fill-rule="evenodd" clip-rule="evenodd" d="M11 2.33329C9.48416 2.33301 7.99475 2.73032 6.68044 3.48556C5.36614 4.24079 4.2729 5.32754 3.50985 6.63733C2.74681 7.94711 2.34064 9.43413 2.33189 10.9499C2.32314 12.4658 2.71212 13.9574 3.46 15.2759C3.9655 14.6189 4.6153 14.087 5.35918 13.7213C6.10305 13.3555 6.92108 13.1658 7.75 13.1666H14.25C15.0789 13.1658 15.8969 13.3555 16.6408 13.7213C17.3847 14.087 18.0345 14.6189 18.54 15.2759C19.2879 13.9574 19.6769 12.4658 19.6681 10.9499C19.6594 9.43413 19.2532 7.94711 18.4902 6.63733C17.7271 5.32754 16.6339 4.24079 15.3196 3.48556C14.0053 2.73032 12.5158 2.33301 11 2.33329ZM19.6049 17.5823C21.0534 15.694 21.8368 13.3798 21.8333 11C21.8333 5.01671 16.9833 0.166626 11 0.166626C5.01675 0.166626 0.166669 5.01671 0.166669 11C0.163092 13.3798 0.946566 15.694 2.39509 17.5823L2.38967 17.6018L2.77425 18.0492C3.79029 19.2371 5.05184 20.1905 6.47192 20.8438C7.892 21.4971 9.43686 21.8347 11 21.8333C13.1963 21.8373 15.3414 21.1702 17.1479 19.9212C17.9181 19.3891 18.6165 18.7599 19.2258 18.0492L19.6103 17.6018L19.6049 17.5823ZM11 4.49996C10.138 4.49996 9.3114 4.84237 8.7019 5.45186C8.09241 6.06136 7.75 6.88801 7.75 7.74996C7.75 8.61191 8.09241 9.43856 8.7019 10.0481C9.3114 10.6576 10.138 11 11 11C11.862 11 12.6886 10.6576 13.2981 10.0481C13.9076 9.43856 14.25 8.61191 14.25 7.74996C14.25 6.88801 13.9076 6.06136 13.2981 5.45186C12.6886 4.84237 11.862 4.49996 11 4.49996Z" fill="#9747FF"/>
</svg>
