<svg width="72" height="9" viewBox="0 0 72 9" fill="none" xmlns="http://www.w3.org/2000/svg">
  <path d="M3.60938 2.60156C3.94141 2.60156 4.26367 2.65234 4.57617 2.75391C4.82617 2.83203 4.95117 3.00195 4.95117 3.26367V3.29297C4.95117 3.47266 4.87891 3.61523 4.73438 3.7207C4.58594 3.83008 4.42578 3.85742 4.25391 3.80273C4.04688 3.73242 3.83203 3.69727 3.60938 3.69727C3.02344 3.69727 2.52344 3.9043 2.10938 4.31836C1.69922 4.73242 1.49414 5.23242 1.49414 5.81836C1.49414 6.40039 1.69922 6.89844 2.10938 7.3125C2.52344 7.72656 3.02344 7.93359 3.60938 7.93359C3.83203 7.93359 4.04688 7.90039 4.25391 7.83398C4.42578 7.7793 4.58594 7.80469 4.73438 7.91016C4.87891 8.01562 4.95117 8.16016 4.95117 8.34375C4.95117 8.60156 4.82617 8.77148 4.57617 8.85352C4.26367 8.95117 3.94141 9 3.60938 9C2.72656 9 1.97266 8.6875 1.34766 8.0625C0.722656 7.4375 0.410156 6.68359 0.410156 5.80078C0.410156 4.91797 0.722656 4.16406 1.34766 3.53906C1.97266 2.91406 2.72656 2.60156 3.60938 2.60156ZM9.15234 2.60156C10.0352 2.60156 10.7891 2.91406 11.4141 3.53906C12.0391 4.16406 12.3516 4.91797 12.3516 5.80078V8.4668C12.3516 8.61523 12.2988 8.74023 12.1934 8.8418C12.0879 8.94727 11.9629 9 11.8184 9H11.8008C11.6562 9 11.5312 8.94727 11.4258 8.8418C11.3203 8.74023 11.2676 8.61523 11.2676 8.4668V8.19727C10.6621 8.73242 9.95703 9 9.15234 9C8.26953 9 7.51562 8.6875 6.89062 8.0625C6.26562 7.4375 5.95312 6.68359 5.95312 5.80078C5.95312 4.91797 6.26562 4.16406 6.89062 3.53906C7.51562 2.91406 8.26953 2.60156 9.15234 2.60156ZM9.15234 3.68555C8.56641 3.68555 8.06641 3.89258 7.65234 4.30664C7.24219 4.7207 7.03711 5.21875 7.03711 5.80078C7.03711 6.38672 7.24219 6.88672 7.65234 7.30078C8.06641 7.71094 8.56641 7.91602 9.15234 7.91602C9.73828 7.91602 10.2363 7.71094 10.6465 7.30078C11.0605 6.88672 11.2676 6.38672 11.2676 5.80078C11.2676 5.21875 11.0605 4.7207 10.6465 4.30664C10.2363 3.89258 9.73828 3.68555 9.15234 3.68555ZM18.041 4.31836C17.6309 3.9043 17.1328 3.69727 16.5469 3.69727C15.9609 3.69727 15.4609 3.9043 15.0469 4.31836C14.6367 4.73242 14.4316 5.23242 14.4316 5.81836C14.4316 6.40039 14.6367 6.89844 15.0469 7.3125C15.4609 7.72656 15.9609 7.93359 16.5469 7.93359C17.1328 7.93359 17.6309 7.72656 18.041 7.3125C18.4551 6.89844 18.6621 6.40039 18.6621 5.81836C18.6621 5.23242 18.4551 4.73242 18.041 4.31836ZM14.2852 3.53906C14.9102 2.91406 15.6641 2.60156 16.5469 2.60156C17.4297 2.60156 18.1836 2.91406 18.8086 3.53906C19.4336 4.16406 19.7461 4.91797 19.7461 5.80078C19.7461 6.68359 19.4336 7.4375 18.8086 8.0625C18.1836 8.6875 17.4297 9 16.5469 9C15.6641 9 14.9102 8.6875 14.2852 8.0625C13.6602 7.4375 13.3477 6.68359 13.3477 5.80078C13.3477 4.91797 13.6602 4.16406 14.2852 3.53906ZM21.3223 2.92969C22.2598 5.11328 22.9121 6.63477 23.2793 7.49414C23.2793 7.49023 23.2871 7.50586 23.3027 7.54102C23.3262 7.59961 23.3535 7.59961 23.3848 7.54102L23.3965 7.50586L25.3594 2.92969C25.4531 2.71094 25.6172 2.60156 25.8516 2.60156H25.8633C26.0547 2.60156 26.2031 2.68164 26.3086 2.8418C26.4141 3.00195 26.4297 3.16992 26.3555 3.3457L24.1758 8.43164C24.0273 8.81055 23.75 9 23.3438 9C22.9336 9 22.6543 8.81055 22.5059 8.43164L20.3262 3.3457C20.252 3.16992 20.2676 3.00195 20.373 2.8418C20.4785 2.68164 20.627 2.60156 20.8184 2.60156H20.8359C21.0703 2.60156 21.2324 2.71094 21.3223 2.92969ZM31.7578 4.45312C31.3359 3.94922 30.7969 3.69727 30.1406 3.69727C29.5547 3.69727 29.0547 3.9043 28.6406 4.31836C28.2305 4.73242 28.0254 5.23242 28.0254 5.81836C28.0254 5.92383 28.0332 6.02734 28.0488 6.12891L31.7578 4.45312ZM31.8867 3.12305C32.4062 3.46289 32.793 3.91211 33.0469 4.4707C33.1094 4.60352 33.1152 4.74023 33.0645 4.88086C33.0137 5.01758 32.9199 5.11719 32.7832 5.17969C32.2363 5.42578 31.5176 5.75 30.627 6.15234C29.5215 6.65234 28.8047 6.97656 28.4766 7.125C28.8984 7.66406 29.4531 7.93359 30.1406 7.93359C30.5977 7.93359 31.0117 7.79883 31.3828 7.5293C31.7422 7.26758 31.9941 6.92773 32.1387 6.50977C32.2246 6.26758 32.3965 6.14648 32.6543 6.14648C32.8379 6.14648 32.9844 6.22266 33.0938 6.375C33.1992 6.52344 33.2207 6.68555 33.1582 6.86133C32.9395 7.49414 32.5566 8.00586 32.0098 8.39648C31.4512 8.79883 30.8281 9 30.1406 9C29.2578 9 28.5039 8.6875 27.8789 8.0625C27.2539 7.4375 26.9414 6.68359 26.9414 5.80078C26.9414 4.91797 27.2539 4.16406 27.8789 3.53906C28.5039 2.91406 29.2578 2.60156 30.1406 2.60156C30.7773 2.60156 31.3594 2.77539 31.8867 3.12305ZM35.3379 8.4668C35.3379 8.61523 35.2852 8.74023 35.1797 8.8418C35.0742 8.94727 34.9492 9 34.8047 9H34.7871C34.6426 9 34.5176 8.94727 34.4121 8.8418C34.3066 8.74023 34.2539 8.61523 34.2539 8.4668V5.26172C34.2539 4.52734 34.5137 3.90039 35.0332 3.38086C35.5527 2.86133 36.1797 2.60156 36.9141 2.60156C37.6445 2.60156 38.2695 2.86133 38.7891 3.38086C39.3086 3.90039 39.5684 4.52734 39.5684 5.26172V8.4668C39.5684 8.61523 39.5156 8.74023 39.4102 8.8418C39.3086 8.94727 39.1836 9 39.0352 9H39.0234C38.875 9 38.748 8.94727 38.6426 8.8418C38.5371 8.74023 38.4844 8.61523 38.4844 8.4668V5.26172C38.4844 4.82812 38.332 4.45703 38.0273 4.14844C37.7188 3.83984 37.3477 3.68555 36.9141 3.68555C36.4766 3.68555 36.1035 3.83984 35.7949 4.14844C35.4902 4.45703 35.3379 4.82812 35.3379 5.26172V8.4668ZM41.5137 2.60156C41.6621 2.60156 41.7871 2.6543 41.8887 2.75977C41.9941 2.86523 42.0469 2.99219 42.0469 3.14062V8.4668C42.0469 8.61523 41.9941 8.74023 41.8887 8.8418C41.7871 8.94727 41.6621 9 41.5137 9H41.502C41.3535 9 41.2266 8.94727 41.1211 8.8418C41.0156 8.74023 40.9629 8.61523 40.9629 8.4668V3.14062C40.9629 2.99219 41.0156 2.86523 41.1211 2.75977C41.2266 2.6543 41.3535 2.60156 41.502 2.60156H41.5137ZM41.5078 1.48828C41.3281 1.48828 41.1758 1.42578 41.0508 1.30078C40.9258 1.17578 40.8633 1.02344 40.8633 0.84375C40.8633 0.667969 40.9258 0.517578 41.0508 0.392578C41.1758 0.267578 41.3281 0.205078 41.5078 0.205078C41.6836 0.205078 41.834 0.267578 41.959 0.392578C42.0879 0.517578 42.1523 0.667969 42.1523 0.84375C42.1523 1.02344 42.0879 1.17578 41.959 1.30078C41.834 1.42578 41.6836 1.48828 41.5078 1.48828ZM48.082 4.45312C47.6602 3.94922 47.1211 3.69727 46.4648 3.69727C45.8789 3.69727 45.3789 3.9043 44.9648 4.31836C44.5547 4.73242 44.3496 5.23242 44.3496 5.81836C44.3496 5.92383 44.3574 6.02734 44.373 6.12891L48.082 4.45312ZM48.2109 3.12305C48.7305 3.46289 49.1172 3.91211 49.3711 4.4707C49.4336 4.60352 49.4395 4.74023 49.3887 4.88086C49.3379 5.01758 49.2441 5.11719 49.1074 5.17969C48.5605 5.42578 47.8418 5.75 46.9512 6.15234C45.8457 6.65234 45.1289 6.97656 44.8008 7.125C45.2227 7.66406 45.7773 7.93359 46.4648 7.93359C46.9219 7.93359 47.3359 7.79883 47.707 7.5293C48.0664 7.26758 48.3184 6.92773 48.4629 6.50977C48.5488 6.26758 48.7207 6.14648 48.9785 6.14648C49.1621 6.14648 49.3086 6.22266 49.418 6.375C49.5234 6.52344 49.5449 6.68555 49.4824 6.86133C49.2637 7.49414 48.8809 8.00586 48.334 8.39648C47.7754 8.79883 47.1523 9 46.4648 9C45.582 9 44.8281 8.6875 44.2031 8.0625C43.5781 7.4375 43.2656 6.68359 43.2656 5.80078C43.2656 4.91797 43.5781 4.16406 44.2031 3.53906C44.8281 2.91406 45.582 2.60156 46.4648 2.60156C47.1016 2.60156 47.6836 2.77539 48.2109 3.12305ZM51.6621 8.4668C51.6621 8.61523 51.6094 8.74023 51.5039 8.8418C51.3984 8.94727 51.2734 9 51.1289 9H51.1113C50.9668 9 50.8418 8.94727 50.7363 8.8418C50.6309 8.74023 50.5781 8.61523 50.5781 8.4668V5.26172C50.5781 4.52734 50.8379 3.90039 51.3574 3.38086C51.877 2.86133 52.5039 2.60156 53.2383 2.60156C53.9688 2.60156 54.5938 2.86133 55.1133 3.38086C55.6328 3.90039 55.8926 4.52734 55.8926 5.26172V8.4668C55.8926 8.61523 55.8398 8.74023 55.7344 8.8418C55.6328 8.94727 55.5078 9 55.3594 9H55.3477C55.1992 9 55.0723 8.94727 54.9668 8.8418C54.8613 8.74023 54.8086 8.61523 54.8086 8.4668V5.26172C54.8086 4.82812 54.6562 4.45703 54.3516 4.14844C54.043 3.83984 53.6719 3.68555 53.2383 3.68555C52.8008 3.68555 52.4277 3.83984 52.1191 4.14844C51.8145 4.45703 51.6621 4.82812 51.6621 5.26172V8.4668ZM60.0938 2.60156C60.4258 2.60156 60.748 2.65234 61.0605 2.75391C61.3105 2.83203 61.4355 3.00195 61.4355 3.26367V3.29297C61.4355 3.47266 61.3633 3.61523 61.2188 3.7207C61.0703 3.83008 60.9102 3.85742 60.7383 3.80273C60.5312 3.73242 60.3164 3.69727 60.0938 3.69727C59.5078 3.69727 59.0078 3.9043 58.5938 4.31836C58.1836 4.73242 57.9785 5.23242 57.9785 5.81836C57.9785 6.40039 58.1836 6.89844 58.5938 7.3125C59.0078 7.72656 59.5078 7.93359 60.0938 7.93359C60.3164 7.93359 60.5312 7.90039 60.7383 7.83398C60.9102 7.7793 61.0703 7.80469 61.2188 7.91016C61.3633 8.01562 61.4355 8.16016 61.4355 8.34375C61.4355 8.60156 61.3105 8.77148 61.0605 8.85352C60.748 8.95117 60.4258 9 60.0938 9C59.2109 9 58.457 8.6875 57.832 8.0625C57.207 7.4375 56.8945 6.68359 56.8945 5.80078C56.8945 4.91797 57.207 4.16406 57.832 3.53906C58.457 2.91406 59.2109 2.60156 60.0938 2.60156ZM63.2051 2.60156C63.3535 2.60156 63.4785 2.6543 63.5801 2.75977C63.6855 2.86523 63.7383 2.99219 63.7383 3.14062V8.4668C63.7383 8.61523 63.6855 8.74023 63.5801 8.8418C63.4785 8.94727 63.3535 9 63.2051 9H63.1934C63.0449 9 62.918 8.94727 62.8125 8.8418C62.707 8.74023 62.6543 8.61523 62.6543 8.4668V3.14062C62.6543 2.99219 62.707 2.86523 62.8125 2.75977C62.918 2.6543 63.0449 2.60156 63.1934 2.60156H63.2051ZM63.1992 1.48828C63.0195 1.48828 62.8672 1.42578 62.7422 1.30078C62.6172 1.17578 62.5547 1.02344 62.5547 0.84375C62.5547 0.667969 62.6172 0.517578 62.7422 0.392578C62.8672 0.267578 63.0195 0.205078 63.1992 0.205078C63.375 0.205078 63.5254 0.267578 63.6504 0.392578C63.7793 0.517578 63.8438 0.667969 63.8438 0.84375C63.8438 1.02344 63.7793 1.17578 63.6504 1.30078C63.5254 1.42578 63.375 1.48828 63.1992 1.48828ZM68.332 2.60156C69.2148 2.60156 69.9688 2.91406 70.5938 3.53906C71.2188 4.16406 71.5312 4.91797 71.5312 5.80078V8.4668C71.5312 8.61523 71.4785 8.74023 71.373 8.8418C71.2676 8.94727 71.1426 9 70.998 9H70.9805C70.8359 9 70.7109 8.94727 70.6055 8.8418C70.5 8.74023 70.4473 8.61523 70.4473 8.4668V8.19727C69.8418 8.73242 69.1367 9 68.332 9C67.4492 9 66.6953 8.6875 66.0703 8.0625C65.4453 7.4375 65.1328 6.68359 65.1328 5.80078C65.1328 4.91797 65.4453 4.16406 66.0703 3.53906C66.6953 2.91406 67.4492 2.60156 68.332 2.60156ZM68.332 3.68555C67.7461 3.68555 67.2461 3.89258 66.832 4.30664C66.4219 4.7207 66.2168 5.21875 66.2168 5.80078C66.2168 6.38672 66.4219 6.88672 66.832 7.30078C67.2461 7.71094 67.7461 7.91602 68.332 7.91602C68.918 7.91602 69.416 7.71094 69.8262 7.30078C70.2402 6.88672 70.4473 6.38672 70.4473 5.80078C70.4473 5.21875 70.2402 4.7207 69.8262 4.30664C69.416 3.89258 68.918 3.68555 68.332 3.68555Z" fill="black"/>
</svg>
