<svg width="267" height="71" viewBox="0 0 267 71" fill="none" xmlns="http://www.w3.org/2000/svg">
<rect y="35" width="160" height="36" rx="10" fill="#EFDB6F"/>
<rect x="54" width="176" height="36" rx="10" fill="#EFDB6F"/>
<path d="M16.19 25.234C15.3753 25.234 14.578 25.1647 13.798 25.026C13.018 24.8873 12.29 24.688 11.614 24.428C10.9553 24.168 10.3573 23.8387 9.82 23.44C9.612 23.284 9.46467 23.1107 9.378 22.92C9.30867 22.712 9.29133 22.5127 9.326 22.322C9.378 22.114 9.46467 21.9407 9.586 21.802C9.72467 21.6633 9.88933 21.5853 10.08 21.568C10.2707 21.5507 10.4787 21.6113 10.704 21.75C11.484 22.3047 12.316 22.712 13.2 22.972C14.084 23.2147 15.0807 23.336 16.19 23.336C17.75 23.336 18.9027 23.05 19.648 22.478C20.4107 21.8887 20.792 21.1173 20.792 20.164C20.792 19.384 20.5147 18.7773 19.96 18.344C19.4227 17.8933 18.5127 17.538 17.23 17.278L14.526 16.732C12.8967 16.3853 11.6747 15.822 10.86 15.042C10.0627 14.2447 9.664 13.1873 9.664 11.87C9.664 11.0553 9.82867 10.3187 10.158 9.66C10.4873 8.984 10.9467 8.412 11.536 7.944C12.1253 7.45867 12.8273 7.086 13.642 6.826C14.4567 6.566 15.358 6.436 16.346 6.436C17.438 6.436 18.452 6.592 19.388 6.904C20.3413 7.19867 21.1993 7.64933 21.962 8.256C22.1527 8.412 22.2827 8.594 22.352 8.802C22.4213 8.99267 22.43 9.18333 22.378 9.374C22.326 9.54733 22.2307 9.69467 22.092 9.816C21.9707 9.93733 21.806 10.0067 21.598 10.024C21.4073 10.0413 21.1907 9.972 20.948 9.816C20.2547 9.296 19.5353 8.92333 18.79 8.698C18.0447 8.45533 17.2213 8.334 16.32 8.334C15.4013 8.334 14.604 8.47267 13.928 8.75C13.2693 9.02733 12.7493 9.43467 12.368 9.972C12.004 10.492 11.822 11.0987 11.822 11.792C11.822 12.624 12.0733 13.2827 12.576 13.768C13.096 14.2533 13.9367 14.6087 15.098 14.834L17.802 15.406C19.5527 15.77 20.844 16.3247 21.676 17.07C22.5253 17.798 22.95 18.7947 22.95 20.06C22.95 20.8227 22.794 21.5247 22.482 22.166C22.17 22.8073 21.7193 23.362 21.13 23.83C20.5407 24.2807 19.83 24.6273 18.998 24.87C18.166 25.1127 17.23 25.234 16.19 25.234ZM31.6661 25.234C30.3314 25.234 29.1788 24.974 28.2081 24.454C27.2548 23.9167 26.5094 23.1627 25.9721 22.192C25.4521 21.2213 25.1921 20.06 25.1921 18.708C25.1921 17.3907 25.4521 16.2467 25.9721 15.276C26.4921 14.288 27.2028 13.5167 28.1041 12.962C29.0228 12.4073 30.0801 12.13 31.2761 12.13C32.1254 12.13 32.8881 12.2773 33.5641 12.572C34.2401 12.8493 34.8121 13.2567 35.2801 13.794C35.7654 14.3313 36.1294 14.9813 36.3721 15.744C36.6321 16.5067 36.7621 17.3647 36.7621 18.318C36.7621 18.5953 36.6841 18.8033 36.5281 18.942C36.3721 19.0633 36.1468 19.124 35.8521 19.124H26.8041V17.746H35.3581L34.9421 18.084C34.9421 17.148 34.8034 16.3593 34.5261 15.718C34.2488 15.0593 33.8414 14.5567 33.3041 14.21C32.7841 13.8633 32.1254 13.69 31.3281 13.69C30.4441 13.69 29.6901 13.898 29.0661 14.314C28.4594 14.7127 28.0001 15.276 27.6881 16.004C27.3761 16.7147 27.2201 17.5467 27.2201 18.5V18.656C27.2201 20.2507 27.6014 21.464 28.3641 22.296C29.1441 23.128 30.2448 23.544 31.6661 23.544C32.2554 23.544 32.8361 23.466 33.4081 23.31C33.9974 23.154 34.5694 22.894 35.1241 22.53C35.3668 22.374 35.5834 22.3047 35.7741 22.322C35.9821 22.322 36.1468 22.3827 36.2681 22.504C36.3894 22.608 36.4674 22.7467 36.5021 22.92C36.5541 23.076 36.5368 23.2493 36.4501 23.44C36.3808 23.6307 36.2334 23.7953 36.0081 23.934C35.4361 24.35 34.7601 24.6707 33.9801 24.896C33.2001 25.1213 32.4288 25.234 31.6661 25.234ZM44.282 25.234C43.2593 25.234 42.41 25.052 41.734 24.688C41.0753 24.3067 40.5727 23.7433 40.226 22.998C39.8967 22.2527 39.732 21.3253 39.732 20.216V13.248C39.732 12.884 39.8187 12.6153 39.992 12.442C40.1827 12.2687 40.4427 12.182 40.772 12.182C41.1187 12.182 41.3787 12.2687 41.552 12.442C41.7427 12.6153 41.838 12.884 41.838 13.248V20.19C41.838 21.2993 42.0633 22.1313 42.514 22.686C42.982 23.2233 43.71 23.492 44.698 23.492C45.7727 23.492 46.648 23.128 47.324 22.4C48 21.672 48.338 20.7187 48.338 19.54V13.248C48.338 12.884 48.4247 12.6153 48.598 12.442C48.7887 12.2687 49.0573 12.182 49.404 12.182C49.7333 12.182 49.9847 12.2687 50.158 12.442C50.3487 12.6153 50.444 12.884 50.444 13.248V24.09C50.444 24.818 50.106 25.182 49.43 25.182C49.1007 25.182 48.8407 25.0867 48.65 24.896C48.4767 24.7053 48.39 24.4367 48.39 24.09V21.724L48.728 22.088C48.3813 23.1107 47.8093 23.8907 47.012 24.428C46.232 24.9653 45.322 25.234 44.282 25.234ZM62.1793 25.182C61.8327 25.182 61.5727 25.0867 61.3993 24.896C61.226 24.7053 61.1393 24.4367 61.1393 24.09V13.248C61.1393 12.9013 61.226 12.6413 61.3993 12.468C61.5727 12.2773 61.824 12.182 62.1533 12.182C62.4827 12.182 62.734 12.2773 62.9073 12.468C63.098 12.6413 63.1933 12.9013 63.1933 13.248V15.536L62.9073 15.172C63.2367 14.2013 63.7653 13.456 64.4933 12.936C65.2387 12.3987 66.1227 12.13 67.1453 12.13C68.22 12.13 69.0867 12.39 69.7453 12.91C70.4213 13.4127 70.872 14.2013 71.0973 15.276H70.7073C71.0193 14.3053 71.574 13.5427 72.3713 12.988C73.186 12.416 74.1307 12.13 75.2053 12.13C76.1587 12.13 76.9387 12.312 77.5453 12.676C78.1693 13.04 78.6373 13.5947 78.9493 14.34C79.2613 15.068 79.4173 15.9953 79.4173 17.122V24.09C79.4173 24.4367 79.322 24.7053 79.1313 24.896C78.958 25.0867 78.698 25.182 78.3513 25.182C78.022 25.182 77.762 25.0867 77.5713 24.896C77.398 24.7053 77.3113 24.4367 77.3113 24.09V17.226C77.3113 16.0647 77.112 15.2153 76.7133 14.678C76.3147 14.1233 75.6387 13.846 74.6853 13.846C73.6453 13.846 72.822 14.21 72.2153 14.938C71.626 15.6487 71.3313 16.6193 71.3313 17.85V24.09C71.3313 24.4367 71.236 24.7053 71.0453 24.896C70.872 25.0867 70.612 25.182 70.2653 25.182C69.936 25.182 69.676 25.0867 69.4853 24.896C69.312 24.7053 69.2253 24.4367 69.2253 24.09V17.226C69.2253 16.0647 69.0173 15.2153 68.6013 14.678C68.2027 14.1233 67.5353 13.846 66.5993 13.846C65.5593 13.846 64.736 14.21 64.1293 14.938C63.54 15.6487 63.2453 16.6193 63.2453 17.85V24.09C63.2453 24.818 62.89 25.182 62.1793 25.182ZM87.8269 25.234C86.8042 25.234 85.9549 25.052 85.2789 24.688C84.6202 24.3067 84.1176 23.7433 83.7709 22.998C83.4416 22.2527 83.2769 21.3253 83.2769 20.216V13.248C83.2769 12.884 83.3636 12.6153 83.5369 12.442C83.7276 12.2687 83.9876 12.182 84.3169 12.182C84.6636 12.182 84.9236 12.2687 85.0969 12.442C85.2876 12.6153 85.3829 12.884 85.3829 13.248V20.19C85.3829 21.2993 85.6082 22.1313 86.0589 22.686C86.5269 23.2233 87.2549 23.492 88.2429 23.492C89.3176 23.492 90.1929 23.128 90.8689 22.4C91.5449 21.672 91.8829 20.7187 91.8829 19.54V13.248C91.8829 12.884 91.9696 12.6153 92.1429 12.442C92.3336 12.2687 92.6022 12.182 92.9489 12.182C93.2782 12.182 93.5296 12.2687 93.7029 12.442C93.8936 12.6153 93.9889 12.884 93.9889 13.248V24.09C93.9889 24.818 93.6509 25.182 92.9749 25.182C92.6456 25.182 92.3856 25.0867 92.1949 24.896C92.0216 24.7053 91.9349 24.4367 91.9349 24.09V21.724L92.2729 22.088C91.9262 23.1107 91.3542 23.8907 90.5569 24.428C89.7769 24.9653 88.8669 25.234 87.8269 25.234ZM98.9691 25.182C98.6225 25.182 98.3625 25.0867 98.1891 24.896C98.0158 24.7053 97.9291 24.4367 97.9291 24.09V13.248C97.9291 12.9013 98.0158 12.6413 98.1891 12.468C98.3625 12.2773 98.6138 12.182 98.9431 12.182C99.2725 12.182 99.5238 12.2773 99.6971 12.468C99.8878 12.6413 99.9831 12.9013 99.9831 13.248V15.484L99.6971 15.172C100.061 14.1667 100.65 13.4127 101.465 12.91C102.297 12.39 103.25 12.13 104.325 12.13C105.33 12.13 106.162 12.312 106.821 12.676C107.497 13.04 108 13.5947 108.329 14.34C108.658 15.068 108.823 15.9953 108.823 17.122V24.09C108.823 24.4367 108.728 24.7053 108.537 24.896C108.364 25.0867 108.112 25.182 107.783 25.182C107.436 25.182 107.168 25.0867 106.977 24.896C106.804 24.7053 106.717 24.4367 106.717 24.09V17.252C106.717 16.0733 106.483 15.2153 106.015 14.678C105.564 14.1233 104.836 13.846 103.831 13.846C102.67 13.846 101.742 14.21 101.049 14.938C100.373 15.6487 100.035 16.602 100.035 17.798V24.09C100.035 24.818 99.6798 25.182 98.9691 25.182ZM117.516 25.234C116.39 25.234 115.402 24.9653 114.552 24.428C113.72 23.8907 113.07 23.1367 112.602 22.166C112.152 21.178 111.926 20.0167 111.926 18.682C111.926 17.33 112.152 16.1687 112.602 15.198C113.07 14.21 113.72 13.456 114.552 12.936C115.402 12.3987 116.39 12.13 117.516 12.13C118.66 12.13 119.64 12.416 120.454 12.988C121.269 13.56 121.815 14.3313 122.092 15.302H121.806V7.554C121.806 7.20733 121.893 6.94733 122.066 6.774C122.257 6.58333 122.526 6.488 122.872 6.488C123.202 6.488 123.453 6.58333 123.626 6.774C123.817 6.94733 123.912 7.20733 123.912 7.554V24.09C123.912 24.4367 123.826 24.7053 123.652 24.896C123.479 25.0867 123.219 25.182 122.872 25.182C122.543 25.182 122.283 25.0867 122.092 24.896C121.919 24.7053 121.832 24.4367 121.832 24.09V21.62L122.118 21.984C121.841 22.972 121.286 23.7607 120.454 24.35C119.64 24.9393 118.66 25.234 117.516 25.234ZM117.958 23.544C118.738 23.544 119.423 23.3533 120.012 22.972C120.602 22.5907 121.052 22.036 121.364 21.308C121.694 20.58 121.858 19.7047 121.858 18.682C121.858 17.1047 121.503 15.9 120.792 15.068C120.099 14.236 119.154 13.82 117.958 13.82C117.161 13.82 116.468 14.0107 115.878 14.392C115.306 14.756 114.856 15.302 114.526 16.03C114.214 16.7407 114.058 17.6247 114.058 18.682C114.058 20.242 114.414 21.4467 115.124 22.296C115.835 23.128 116.78 23.544 117.958 23.544ZM133.117 25.234C131.886 25.234 130.82 24.9653 129.919 24.428C129.017 23.8907 128.315 23.1367 127.813 22.166C127.327 21.178 127.085 20.0167 127.085 18.682C127.085 17.6767 127.223 16.7753 127.501 15.978C127.778 15.1633 128.185 14.47 128.723 13.898C129.26 13.326 129.893 12.8927 130.621 12.598C131.366 12.286 132.198 12.13 133.117 12.13C134.347 12.13 135.413 12.3987 136.315 12.936C137.216 13.4733 137.909 14.236 138.395 15.224C138.897 16.1947 139.149 17.3473 139.149 18.682C139.149 19.6873 139.01 20.5887 138.733 21.386C138.455 22.1833 138.048 22.8767 137.511 23.466C136.973 24.038 136.332 24.48 135.587 24.792C134.859 25.0867 134.035 25.234 133.117 25.234ZM133.117 23.544C133.897 23.544 134.581 23.3533 135.171 22.972C135.76 22.5907 136.211 22.036 136.523 21.308C136.852 20.58 137.017 19.7047 137.017 18.682C137.017 17.1047 136.661 15.9 135.951 15.068C135.257 14.236 134.313 13.82 133.117 13.82C132.319 13.82 131.626 14.0107 131.037 14.392C130.465 14.756 130.014 15.302 129.685 16.03C129.373 16.7407 129.217 17.6247 129.217 18.682C129.217 20.242 129.572 21.4467 130.283 22.296C130.993 23.128 131.938 23.544 133.117 23.544ZM152.993 25.234C152.126 25.234 151.346 25.0693 150.653 24.74C149.977 24.3933 149.44 23.9253 149.041 23.336C148.642 22.7467 148.443 22.088 148.443 21.36C148.443 20.424 148.677 19.6873 149.145 19.15C149.63 18.6127 150.419 18.2313 151.511 18.006C152.62 17.7807 154.128 17.668 156.035 17.668H157.205V19.046H156.061C154.657 19.046 153.548 19.1153 152.733 19.254C151.936 19.3753 151.372 19.592 151.043 19.904C150.731 20.216 150.575 20.658 150.575 21.23C150.575 21.9407 150.818 22.5213 151.303 22.972C151.806 23.4227 152.482 23.648 153.331 23.648C154.024 23.648 154.631 23.4833 155.151 23.154C155.688 22.8247 156.104 22.374 156.399 21.802C156.711 21.23 156.867 20.5713 156.867 19.826V16.862C156.867 15.7873 156.65 15.016 156.217 14.548C155.784 14.0627 155.073 13.82 154.085 13.82C153.478 13.82 152.872 13.898 152.265 14.054C151.658 14.21 151.017 14.4613 150.341 14.808C150.098 14.9293 149.89 14.9727 149.717 14.938C149.544 14.886 149.405 14.7907 149.301 14.652C149.197 14.5133 149.136 14.3573 149.119 14.184C149.102 13.9933 149.136 13.8113 149.223 13.638C149.327 13.4647 149.483 13.326 149.691 13.222C150.454 12.8407 151.208 12.5633 151.953 12.39C152.698 12.2167 153.409 12.13 154.085 12.13C155.177 12.13 156.078 12.312 156.789 12.676C157.5 13.0227 158.028 13.56 158.375 14.288C158.722 14.9987 158.895 15.9173 158.895 17.044V24.09C158.895 24.4367 158.808 24.7053 158.635 24.896C158.479 25.0867 158.245 25.182 157.933 25.182C157.604 25.182 157.352 25.0867 157.179 24.896C157.006 24.7053 156.919 24.4367 156.919 24.09V22.062H157.153C157.014 22.7207 156.746 23.284 156.347 23.752C155.966 24.22 155.489 24.584 154.917 24.844C154.345 25.104 153.704 25.234 152.993 25.234ZM163.842 25.182C163.496 25.182 163.236 25.0867 163.062 24.896C162.889 24.7053 162.802 24.4367 162.802 24.09V13.248C162.802 12.9013 162.889 12.6413 163.062 12.468C163.236 12.2773 163.487 12.182 163.816 12.182C164.146 12.182 164.397 12.2773 164.57 12.468C164.761 12.6413 164.856 12.9013 164.856 13.248V15.484L164.57 15.172C164.934 14.1667 165.524 13.4127 166.338 12.91C167.17 12.39 168.124 12.13 169.198 12.13C170.204 12.13 171.036 12.312 171.694 12.676C172.37 13.04 172.873 13.5947 173.202 14.34C173.532 15.068 173.696 15.9953 173.696 17.122V24.09C173.696 24.4367 173.601 24.7053 173.41 24.896C173.237 25.0867 172.986 25.182 172.656 25.182C172.31 25.182 172.041 25.0867 171.85 24.896C171.677 24.7053 171.59 24.4367 171.59 24.09V17.252C171.59 16.0733 171.356 15.2153 170.888 14.678C170.438 14.1233 169.71 13.846 168.704 13.846C167.543 13.846 166.616 14.21 165.922 14.938C165.246 15.6487 164.908 16.602 164.908 17.798V24.09C164.908 24.818 164.553 25.182 163.842 25.182ZM178.62 25.13C178.273 25.13 178.013 25.0347 177.84 24.844C177.666 24.636 177.58 24.35 177.58 23.986V13.352C177.58 12.988 177.666 12.7107 177.84 12.52C178.013 12.3293 178.273 12.234 178.62 12.234C178.949 12.234 179.209 12.3293 179.4 12.52C179.59 12.7107 179.686 12.988 179.686 13.352V23.986C179.686 24.35 179.59 24.636 179.4 24.844C179.226 25.0347 178.966 25.13 178.62 25.13ZM178.62 9.322C178.186 9.322 177.848 9.20933 177.606 8.984C177.363 8.74133 177.242 8.42067 177.242 8.022C177.242 7.606 177.363 7.294 177.606 7.086C177.848 6.86067 178.186 6.748 178.62 6.748C179.07 6.748 179.408 6.86067 179.634 7.086C179.876 7.294 179.998 7.606 179.998 8.022C179.998 8.42067 179.876 8.74133 179.634 8.984C179.408 9.20933 179.07 9.322 178.62 9.322ZM184.714 25.182C184.368 25.182 184.108 25.0867 183.934 24.896C183.761 24.7053 183.674 24.4367 183.674 24.09V13.248C183.674 12.9013 183.761 12.6413 183.934 12.468C184.108 12.2773 184.359 12.182 184.688 12.182C185.018 12.182 185.269 12.2773 185.442 12.468C185.633 12.6413 185.728 12.9013 185.728 13.248V15.536L185.442 15.172C185.772 14.2013 186.3 13.456 187.028 12.936C187.774 12.3987 188.658 12.13 189.68 12.13C190.755 12.13 191.622 12.39 192.28 12.91C192.956 13.4127 193.407 14.2013 193.632 15.276H193.242C193.554 14.3053 194.109 13.5427 194.906 12.988C195.721 12.416 196.666 12.13 197.74 12.13C198.694 12.13 199.474 12.312 200.08 12.676C200.704 13.04 201.172 13.5947 201.484 14.34C201.796 15.068 201.952 15.9953 201.952 17.122V24.09C201.952 24.4367 201.857 24.7053 201.666 24.896C201.493 25.0867 201.233 25.182 200.886 25.182C200.557 25.182 200.297 25.0867 200.106 24.896C199.933 24.7053 199.846 24.4367 199.846 24.09V17.226C199.846 16.0647 199.647 15.2153 199.248 14.678C198.85 14.1233 198.174 13.846 197.22 13.846C196.18 13.846 195.357 14.21 194.75 14.938C194.161 15.6487 193.866 16.6193 193.866 17.85V24.09C193.866 24.4367 193.771 24.7053 193.58 24.896C193.407 25.0867 193.147 25.182 192.8 25.182C192.471 25.182 192.211 25.0867 192.02 24.896C191.847 24.7053 191.76 24.4367 191.76 24.09V17.226C191.76 16.0647 191.552 15.2153 191.136 14.678C190.738 14.1233 190.07 13.846 189.134 13.846C188.094 13.846 187.271 14.21 186.664 14.938C186.075 15.6487 185.78 16.6193 185.78 17.85V24.09C185.78 24.818 185.425 25.182 184.714 25.182ZM209.868 25.234C209.001 25.234 208.221 25.0693 207.528 24.74C206.852 24.3933 206.315 23.9253 205.916 23.336C205.517 22.7467 205.318 22.088 205.318 21.36C205.318 20.424 205.552 19.6873 206.02 19.15C206.505 18.6127 207.294 18.2313 208.386 18.006C209.495 17.7807 211.003 17.668 212.91 17.668H214.08V19.046H212.936C211.532 19.046 210.423 19.1153 209.608 19.254C208.811 19.3753 208.247 19.592 207.918 19.904C207.606 20.216 207.45 20.658 207.45 21.23C207.45 21.9407 207.693 22.5213 208.178 22.972C208.681 23.4227 209.357 23.648 210.206 23.648C210.899 23.648 211.506 23.4833 212.026 23.154C212.563 22.8247 212.979 22.374 213.274 21.802C213.586 21.23 213.742 20.5713 213.742 19.826V16.862C213.742 15.7873 213.525 15.016 213.092 14.548C212.659 14.0627 211.948 13.82 210.96 13.82C210.353 13.82 209.747 13.898 209.14 14.054C208.533 14.21 207.892 14.4613 207.216 14.808C206.973 14.9293 206.765 14.9727 206.592 14.938C206.419 14.886 206.28 14.7907 206.176 14.652C206.072 14.5133 206.011 14.3573 205.994 14.184C205.977 13.9933 206.011 13.8113 206.098 13.638C206.202 13.4647 206.358 13.326 206.566 13.222C207.329 12.8407 208.083 12.5633 208.828 12.39C209.573 12.2167 210.284 12.13 210.96 12.13C212.052 12.13 212.953 12.312 213.664 12.676C214.375 13.0227 214.903 13.56 215.25 14.288C215.597 14.9987 215.77 15.9173 215.77 17.044V24.09C215.77 24.4367 215.683 24.7053 215.51 24.896C215.354 25.0867 215.12 25.182 214.808 25.182C214.479 25.182 214.227 25.0867 214.054 24.896C213.881 24.7053 213.794 24.4367 213.794 24.09V22.062H214.028C213.889 22.7207 213.621 23.284 213.222 23.752C212.841 24.22 212.364 24.584 211.792 24.844C211.22 25.104 210.579 25.234 209.868 25.234ZM223.525 25.234C222.277 25.234 221.324 24.8527 220.665 24.09C220.007 23.3273 219.677 22.2353 219.677 20.814V7.554C219.677 7.20733 219.764 6.94733 219.937 6.774C220.111 6.58333 220.371 6.488 220.717 6.488C221.047 6.488 221.307 6.58333 221.497 6.774C221.688 6.94733 221.783 7.20733 221.783 7.554V20.658C221.783 21.594 221.965 22.296 222.329 22.764C222.711 23.2147 223.265 23.44 223.993 23.44C224.149 23.44 224.288 23.4313 224.409 23.414C224.531 23.3967 224.652 23.388 224.773 23.388C224.964 23.3707 225.094 23.414 225.163 23.518C225.25 23.622 225.293 23.83 225.293 24.142C225.293 24.454 225.224 24.688 225.085 24.844C224.947 25 224.721 25.104 224.409 25.156C224.271 25.1733 224.123 25.1907 223.967 25.208C223.811 25.2253 223.664 25.234 223.525 25.234ZM239.768 25.234C238.433 25.234 237.28 24.974 236.31 24.454C235.356 23.9167 234.611 23.1627 234.074 22.192C233.554 21.2213 233.294 20.06 233.294 18.708C233.294 17.3907 233.554 16.2467 234.074 15.276C234.594 14.288 235.304 13.5167 236.206 12.962C237.124 12.4073 238.182 12.13 239.378 12.13C240.227 12.13 240.99 12.2773 241.666 12.572C242.342 12.8493 242.914 13.2567 243.382 13.794C243.867 14.3313 244.231 14.9813 244.474 15.744C244.734 16.5067 244.864 17.3647 244.864 18.318C244.864 18.5953 244.786 18.8033 244.63 18.942C244.474 19.0633 244.248 19.124 243.954 19.124H234.906V17.746H243.46L243.044 18.084C243.044 17.148 242.905 16.3593 242.628 15.718C242.35 15.0593 241.943 14.5567 241.406 14.21C240.886 13.8633 240.227 13.69 239.43 13.69C238.546 13.69 237.792 13.898 237.168 14.314C236.561 14.7127 236.102 15.276 235.79 16.004C235.478 16.7147 235.322 17.5467 235.322 18.5V18.656C235.322 20.2507 235.703 21.464 236.466 22.296C237.246 23.128 238.346 23.544 239.768 23.544C240.357 23.544 240.938 23.466 241.51 23.31C242.099 23.154 242.671 22.894 243.226 22.53C243.468 22.374 243.685 22.3047 243.876 22.322C244.084 22.322 244.248 22.3827 244.37 22.504C244.491 22.608 244.569 22.7467 244.604 22.92C244.656 23.076 244.638 23.2493 244.552 23.44C244.482 23.6307 244.335 23.7953 244.11 23.934C243.538 24.35 242.862 24.6707 242.082 24.896C241.302 25.1213 240.53 25.234 239.768 25.234ZM249.004 25.182C248.657 25.182 248.397 25.0867 248.224 24.896C248.05 24.7053 247.964 24.4367 247.964 24.09V13.248C247.964 12.9013 248.05 12.6413 248.224 12.468C248.397 12.2773 248.648 12.182 248.978 12.182C249.307 12.182 249.558 12.2773 249.732 12.468C249.922 12.6413 250.018 12.9013 250.018 13.248V15.536L249.732 15.172C250.061 14.2013 250.59 13.456 251.318 12.936C252.063 12.3987 252.947 12.13 253.97 12.13C255.044 12.13 255.911 12.39 256.57 12.91C257.246 13.4127 257.696 14.2013 257.922 15.276H257.532C257.844 14.3053 258.398 13.5427 259.196 12.988C260.01 12.416 260.955 12.13 262.03 12.13C262.983 12.13 263.763 12.312 264.37 12.676C264.994 13.04 265.462 13.5947 265.774 14.34C266.086 15.068 266.242 15.9953 266.242 17.122V24.09C266.242 24.4367 266.146 24.7053 265.956 24.896C265.782 25.0867 265.522 25.182 265.176 25.182C264.846 25.182 264.586 25.0867 264.396 24.896C264.222 24.7053 264.136 24.4367 264.136 24.09V17.226C264.136 16.0647 263.936 15.2153 263.538 14.678C263.139 14.1233 262.463 13.846 261.51 13.846C260.47 13.846 259.646 14.21 259.04 14.938C258.45 15.6487 258.156 16.6193 258.156 17.85V24.09C258.156 24.4367 258.06 24.7053 257.87 24.896C257.696 25.0867 257.436 25.182 257.09 25.182C256.76 25.182 256.5 25.0867 256.31 24.896C256.136 24.7053 256.05 24.4367 256.05 24.09V17.226C256.05 16.0647 255.842 15.2153 255.426 14.678C255.027 14.1233 254.36 13.846 253.424 13.846C252.384 13.846 251.56 14.21 250.954 14.938C250.364 15.6487 250.07 16.6193 250.07 17.85V24.09C250.07 24.818 249.714 25.182 249.004 25.182ZM14.448 60.234C13.4253 60.234 12.576 60.052 11.9 59.688C11.2413 59.3067 10.7387 58.7433 10.392 57.998C10.0627 57.2527 9.898 56.3253 9.898 55.216V48.248C9.898 47.884 9.98467 47.6153 10.158 47.442C10.3487 47.2687 10.6087 47.182 10.938 47.182C11.2847 47.182 11.5447 47.2687 11.718 47.442C11.9087 47.6153 12.004 47.884 12.004 48.248V55.19C12.004 56.2993 12.2293 57.1313 12.68 57.686C13.148 58.2233 13.876 58.492 14.864 58.492C15.9387 58.492 16.814 58.128 17.49 57.4C18.166 56.672 18.504 55.7187 18.504 54.54V48.248C18.504 47.884 18.5907 47.6153 18.764 47.442C18.9547 47.2687 19.2233 47.182 19.57 47.182C19.8993 47.182 20.1507 47.2687 20.324 47.442C20.5147 47.6153 20.61 47.884 20.61 48.248V59.09C20.61 59.818 20.272 60.182 19.596 60.182C19.2667 60.182 19.0067 60.0867 18.816 59.896C18.6427 59.7053 18.556 59.4367 18.556 59.09V56.724L18.894 57.088C18.5473 58.1107 17.9753 58.8907 17.178 59.428C16.398 59.9653 15.488 60.234 14.448 60.234ZM25.6422 60.182C25.2956 60.182 25.0356 60.0867 24.8622 59.896C24.6889 59.7053 24.6022 59.4367 24.6022 59.09V48.248C24.6022 47.9013 24.6889 47.6413 24.8622 47.468C25.0356 47.2773 25.2869 47.182 25.6162 47.182C25.9456 47.182 26.1969 47.2773 26.3702 47.468C26.5609 47.6413 26.6562 47.9013 26.6562 48.248V50.536L26.3702 50.172C26.6996 49.2013 27.2282 48.456 27.9562 47.936C28.7016 47.3987 29.5856 47.13 30.6082 47.13C31.6829 47.13 32.5496 47.39 33.2082 47.91C33.8842 48.4127 34.3349 49.2013 34.5602 50.276H34.1702C34.4822 49.3053 35.0369 48.5427 35.8342 47.988C36.6489 47.416 37.5936 47.13 38.6682 47.13C39.6216 47.13 40.4016 47.312 41.0082 47.676C41.6322 48.04 42.1002 48.5947 42.4122 49.34C42.7242 50.068 42.8802 50.9953 42.8802 52.122V59.09C42.8802 59.4367 42.7849 59.7053 42.5942 59.896C42.4209 60.0867 42.1609 60.182 41.8142 60.182C41.4849 60.182 41.2249 60.0867 41.0342 59.896C40.8609 59.7053 40.7742 59.4367 40.7742 59.09V52.226C40.7742 51.0647 40.5749 50.2153 40.1762 49.678C39.7776 49.1233 39.1016 48.846 38.1482 48.846C37.1082 48.846 36.2849 49.21 35.6782 49.938C35.0889 50.6487 34.7942 51.6193 34.7942 52.85V59.09C34.7942 59.4367 34.6989 59.7053 34.5082 59.896C34.3349 60.0867 34.0749 60.182 33.7282 60.182C33.3989 60.182 33.1389 60.0867 32.9482 59.896C32.7749 59.7053 32.6882 59.4367 32.6882 59.09V52.226C32.6882 51.0647 32.4802 50.2153 32.0642 49.678C31.6656 49.1233 30.9982 48.846 30.0622 48.846C29.0222 48.846 28.1989 49.21 27.5922 49.938C27.0029 50.6487 26.7082 51.6193 26.7082 52.85V59.09C26.7082 59.818 26.3529 60.182 25.6422 60.182ZM57.3689 60.234C56.1209 60.234 55.1676 59.8527 54.5089 59.09C53.8503 58.3273 53.5209 57.2353 53.5209 55.814V42.554C53.5209 42.2073 53.6076 41.9473 53.7809 41.774C53.9543 41.5833 54.2143 41.488 54.5609 41.488C54.8903 41.488 55.1503 41.5833 55.3409 41.774C55.5316 41.9473 55.6269 42.2073 55.6269 42.554V55.658C55.6269 56.594 55.8089 57.296 56.1729 57.764C56.5543 58.2147 57.1089 58.44 57.8369 58.44C57.9929 58.44 58.1316 58.4313 58.2529 58.414C58.3743 58.3967 58.4956 58.388 58.6169 58.388C58.8076 58.3707 58.9376 58.414 59.0069 58.518C59.0936 58.622 59.1369 58.83 59.1369 59.142C59.1369 59.454 59.0676 59.688 58.9289 59.844C58.7903 60 58.5649 60.104 58.2529 60.156C58.1143 60.1733 57.9669 60.1907 57.8109 60.208C57.6549 60.2253 57.5076 60.234 57.3689 60.234ZM65.6863 60.234C64.6636 60.234 63.8143 60.052 63.1383 59.688C62.4796 59.3067 61.9769 58.7433 61.6303 57.998C61.3009 57.2527 61.1363 56.3253 61.1363 55.216V48.248C61.1363 47.884 61.2229 47.6153 61.3963 47.442C61.5869 47.2687 61.8469 47.182 62.1763 47.182C62.5229 47.182 62.7829 47.2687 62.9563 47.442C63.1469 47.6153 63.2423 47.884 63.2423 48.248V55.19C63.2423 56.2993 63.4676 57.1313 63.9183 57.686C64.3863 58.2233 65.1143 58.492 66.1023 58.492C67.1769 58.492 68.0523 58.128 68.7283 57.4C69.4043 56.672 69.7423 55.7187 69.7423 54.54V48.248C69.7423 47.884 69.8289 47.6153 70.0023 47.442C70.1929 47.2687 70.4616 47.182 70.8083 47.182C71.1376 47.182 71.3889 47.2687 71.5623 47.442C71.7529 47.6153 71.8483 47.884 71.8483 48.248V59.09C71.8483 59.818 71.5103 60.182 70.8343 60.182C70.5049 60.182 70.2449 60.0867 70.0543 59.896C69.8809 59.7053 69.7943 59.4367 69.7943 59.09V56.724L70.1323 57.088C69.7856 58.1107 69.2136 58.8907 68.4163 59.428C67.6363 59.9653 66.7263 60.234 65.6863 60.234ZM81.3785 64.914C80.4598 64.914 79.5585 64.8013 78.6745 64.576C77.8078 64.368 77.0192 64.03 76.3085 63.562C76.1005 63.4407 75.9618 63.2933 75.8925 63.12C75.8405 62.9467 75.8318 62.7733 75.8665 62.6C75.9012 62.444 75.9792 62.2967 76.1005 62.158C76.2218 62.0367 76.3605 61.9587 76.5165 61.924C76.6898 61.8893 76.8632 61.9153 77.0365 62.002C77.7992 62.47 78.5272 62.7907 79.2205 62.964C79.9138 63.1373 80.5985 63.224 81.2745 63.224C82.5052 63.224 83.4325 62.8947 84.0565 62.236C84.6978 61.5773 85.0185 60.624 85.0185 59.376V56.438H85.2785C85.0185 57.4433 84.4638 58.2407 83.6145 58.83C82.7825 59.4193 81.8032 59.714 80.6765 59.714C79.5152 59.714 78.5098 59.454 77.6605 58.934C76.8112 58.3967 76.1525 57.6513 75.6845 56.698C75.2338 55.7447 75.0085 54.644 75.0085 53.396C75.0085 52.46 75.1385 51.6107 75.3985 50.848C75.6585 50.068 76.0312 49.4093 76.5165 48.872C77.0192 48.3173 77.6172 47.8927 78.3105 47.598C79.0212 47.286 79.8098 47.13 80.6765 47.13C81.8205 47.13 82.8085 47.4247 83.6405 48.014C84.4725 48.586 85.0098 49.366 85.2525 50.354L84.9925 50.666V48.248C84.9925 47.9013 85.0792 47.6413 85.2525 47.468C85.4432 47.2773 85.7032 47.182 86.0325 47.182C86.3792 47.182 86.6392 47.2773 86.8125 47.468C86.9858 47.6413 87.0725 47.9013 87.0725 48.248V59.09C87.0725 61.014 86.5872 62.4613 85.6165 63.432C84.6632 64.42 83.2505 64.914 81.3785 64.914ZM81.0665 57.998C81.8812 57.998 82.5832 57.816 83.1725 57.452C83.7618 57.0707 84.2125 56.5333 84.5245 55.84C84.8538 55.1467 85.0185 54.332 85.0185 53.396C85.0185 51.992 84.6632 50.8827 83.9525 50.068C83.2418 49.236 82.2798 48.82 81.0665 48.82C80.2692 48.82 79.5758 49.0107 78.9865 49.392C78.3972 49.756 77.9378 50.2847 77.6085 50.978C77.2965 51.654 77.1405 52.46 77.1405 53.396C77.1405 54.8 77.4958 55.918 78.2065 56.75C78.9172 57.582 79.8705 57.998 81.0665 57.998ZM95.0009 60.234C94.1342 60.234 93.3542 60.0693 92.6609 59.74C91.9849 59.3933 91.4475 58.9253 91.0489 58.336C90.6502 57.7467 90.4509 57.088 90.4509 56.36C90.4509 55.424 90.6849 54.6873 91.1529 54.15C91.6382 53.6127 92.4269 53.2313 93.5189 53.006C94.6282 52.7807 96.1362 52.668 98.0429 52.668H99.2129V54.046H98.0689C96.6649 54.046 95.5555 54.1153 94.7409 54.254C93.9435 54.3753 93.3802 54.592 93.0509 54.904C92.7389 55.216 92.5829 55.658 92.5829 56.23C92.5829 56.9407 92.8255 57.5213 93.3109 57.972C93.8135 58.4227 94.4895 58.648 95.3389 58.648C96.0322 58.648 96.6389 58.4833 97.1589 58.154C97.6962 57.8247 98.1122 57.374 98.4069 56.802C98.7189 56.23 98.8749 55.5713 98.8749 54.826V51.862C98.8749 50.7873 98.6582 50.016 98.2249 49.548C97.7915 49.0627 97.0809 48.82 96.0929 48.82C95.4862 48.82 94.8795 48.898 94.2729 49.054C93.6662 49.21 93.0249 49.4613 92.3489 49.808C92.1062 49.9293 91.8982 49.9727 91.7249 49.938C91.5515 49.886 91.4129 49.7907 91.3089 49.652C91.2049 49.5133 91.1442 49.3573 91.1269 49.184C91.1095 48.9933 91.1442 48.8113 91.2309 48.638C91.3349 48.4647 91.4909 48.326 91.6989 48.222C92.4615 47.8407 93.2155 47.5633 93.9609 47.39C94.7062 47.2167 95.4169 47.13 96.0929 47.13C97.1849 47.13 98.0862 47.312 98.7969 47.676C99.5075 48.0227 100.036 48.56 100.383 49.288C100.73 49.9987 100.903 50.9173 100.903 52.044V59.09C100.903 59.4367 100.816 59.7053 100.643 59.896C100.487 60.0867 100.253 60.182 99.9409 60.182C99.6115 60.182 99.3602 60.0867 99.1869 59.896C99.0135 59.7053 98.9269 59.4367 98.9269 59.09V57.062H99.1609C99.0222 57.7207 98.7535 58.284 98.3549 58.752C97.9735 59.22 97.4969 59.584 96.9249 59.844C96.3529 60.104 95.7115 60.234 95.0009 60.234ZM105.876 60.182C105.529 60.182 105.261 60.0867 105.07 59.896C104.897 59.7053 104.81 59.4367 104.81 59.09V48.248C104.81 47.9013 104.897 47.6413 105.07 47.468C105.243 47.2773 105.495 47.182 105.824 47.182C106.153 47.182 106.405 47.2773 106.578 47.468C106.769 47.6413 106.864 47.9013 106.864 48.248V50.354H106.604C106.881 49.3313 107.41 48.5427 108.19 47.988C108.97 47.4333 109.932 47.1387 111.076 47.104C111.336 47.0867 111.544 47.1473 111.7 47.286C111.856 47.4073 111.943 47.624 111.96 47.936C111.977 48.2307 111.908 48.4647 111.752 48.638C111.596 48.8113 111.353 48.9153 111.024 48.95L110.608 49.002C109.429 49.106 108.519 49.4873 107.878 50.146C107.254 50.7873 106.942 51.6713 106.942 52.798V59.09C106.942 59.4367 106.847 59.7053 106.656 59.896C106.483 60.0867 106.223 60.182 105.876 60.182ZM125.095 60.234C124.315 60.234 123.527 60.1387 122.729 59.948C121.949 59.7573 121.221 59.428 120.545 58.96C120.372 58.8387 120.251 58.7 120.181 58.544C120.112 58.3707 120.086 58.206 120.103 58.05C120.138 57.8767 120.207 57.7293 120.311 57.608C120.433 57.4867 120.571 57.4173 120.727 57.4C120.901 57.3653 121.091 57.4 121.299 57.504C121.975 57.92 122.625 58.2147 123.249 58.388C123.891 58.544 124.523 58.622 125.147 58.622C126.135 58.622 126.881 58.44 127.383 58.076C127.886 57.712 128.137 57.218 128.137 56.594C128.137 56.1087 127.973 55.7273 127.643 55.45C127.314 55.1553 126.794 54.93 126.083 54.774L123.717 54.254C122.625 54.0287 121.811 53.6387 121.273 53.084C120.753 52.5293 120.493 51.81 120.493 50.926C120.493 50.146 120.693 49.4787 121.091 48.924C121.507 48.352 122.088 47.91 122.833 47.598C123.579 47.286 124.445 47.13 125.433 47.13C126.196 47.13 126.915 47.234 127.591 47.442C128.285 47.6327 128.909 47.9447 129.463 48.378C129.637 48.4993 129.749 48.6467 129.801 48.82C129.871 48.976 129.879 49.1407 129.827 49.314C129.793 49.47 129.715 49.6087 129.593 49.73C129.472 49.834 129.325 49.8947 129.151 49.912C128.978 49.9293 128.796 49.8773 128.605 49.756C128.085 49.4093 127.557 49.158 127.019 49.002C126.482 48.8287 125.953 48.742 125.433 48.742C124.463 48.742 123.726 48.9327 123.223 49.314C122.721 49.6953 122.469 50.198 122.469 50.822C122.469 51.3073 122.625 51.706 122.937 52.018C123.249 52.33 123.735 52.5553 124.393 52.694L126.759 53.188C127.886 53.4307 128.727 53.8207 129.281 54.358C129.853 54.878 130.139 55.5887 130.139 56.49C130.139 57.634 129.68 58.544 128.761 59.22C127.843 59.896 126.621 60.234 125.095 60.234ZM138.601 60.234C137.37 60.234 136.304 59.9653 135.403 59.428C134.502 58.8907 133.8 58.1367 133.297 57.166C132.812 56.178 132.569 55.0167 132.569 53.682C132.569 52.6767 132.708 51.7753 132.985 50.978C133.262 50.1633 133.67 49.47 134.207 48.898C134.744 48.326 135.377 47.8927 136.105 47.598C136.85 47.286 137.682 47.13 138.601 47.13C139.832 47.13 140.898 47.3987 141.799 47.936C142.7 48.4733 143.394 49.236 143.879 50.224C144.382 51.1947 144.633 52.3473 144.633 53.682C144.633 54.6873 144.494 55.5887 144.217 56.386C143.94 57.1833 143.532 57.8767 142.995 58.466C142.458 59.038 141.816 59.48 141.071 59.792C140.343 60.0867 139.52 60.234 138.601 60.234ZM138.601 58.544C139.381 58.544 140.066 58.3533 140.655 57.972C141.244 57.5907 141.695 57.036 142.007 56.308C142.336 55.58 142.501 54.7047 142.501 53.682C142.501 52.1047 142.146 50.9 141.435 50.068C140.742 49.236 139.797 48.82 138.601 48.82C137.804 48.82 137.11 49.0107 136.521 49.392C135.949 49.756 135.498 50.302 135.169 51.03C134.857 51.7407 134.701 52.6247 134.701 53.682C134.701 55.242 135.056 56.4467 135.767 57.296C136.478 58.128 137.422 58.544 138.601 58.544ZM139.459 45.544C139.338 45.7173 139.19 45.8213 139.017 45.856C138.844 45.8733 138.679 45.8473 138.523 45.778C138.367 45.6913 138.254 45.57 138.185 45.414C138.116 45.258 138.133 45.076 138.237 44.868L140.421 40.63C140.542 40.3873 140.698 40.2313 140.889 40.162C141.08 40.0927 141.27 40.084 141.461 40.136C141.669 40.1707 141.842 40.2573 141.981 40.396C142.12 40.5347 142.198 40.6993 142.215 40.89C142.25 41.0807 142.198 41.28 142.059 41.488L139.459 45.544Z" fill="black"/>
</svg>
