<svg width="58" height="58" viewBox="0 0 58 58" fill="none" xmlns="http://www.w3.org/2000/svg">
<path d="M45.4109 14.5H40.5775C40.5775 7.73329 35.2609 2.41663 28.4942 2.41663C21.7275 2.41663 16.4109 7.73329 16.4109 14.5H11.5775C8.91919 14.5 6.74419 16.675 6.74419 19.3333V48.3333C6.74419 50.9916 8.91919 53.1666 11.5775 53.1666H45.4109C48.0692 53.1666 50.2442 50.9916 50.2442 48.3333V19.3333C50.2442 16.675 48.0692 14.5 45.4109 14.5ZM28.3256 4.72086C32.4339 4.72086 37.7674 8.09296 37.7674 14.5H19.173C19.173 8.53808 24.2172 4.72086 28.3256 4.72086ZM47.8837 49.5813C47.8837 50.1336 47.436 50.5813 46.8837 50.5813H9.76744C9.21516 50.5813 8.76744 50.1336 8.76744 49.5813V17.8604C8.76744 17.3081 9.21516 16.8604 9.76744 16.8604H46.8837C47.436 16.8604 47.8837 17.3081 47.8837 17.8604V49.5813Z" fill="black"/>
<path d="M23.5204 33.1378C23.0089 33.1378 22.5766 32.9613 22.2235 32.6081C21.8704 32.255 21.6938 31.8227 21.6938 31.3113C21.6938 30.7999 21.8704 30.3676 22.2235 30.0144C22.5766 29.6613 23.0089 29.4847 23.5204 29.4847C24.0318 29.4847 24.4641 29.6613 24.8172 30.0144C25.1703 30.3676 25.3469 30.7999 25.3469 31.3113C25.3469 31.8227 25.1703 32.255 24.8172 32.6081C24.4641 32.9613 24.0318 33.1378 23.5204 33.1378ZM26.8081 30.2154C26.2967 30.2154 25.8644 30.0388 25.5113 29.6857C25.1582 29.3325 24.9816 28.9002 24.9816 28.3888C24.9816 27.8774 25.1582 27.4451 25.5113 27.092C25.8644 26.7388 26.2967 26.5623 26.8081 26.5623C27.3196 26.5623 27.7519 26.7388 28.105 27.092C28.4581 27.4451 28.6347 27.8774 28.6347 28.3888C28.6347 28.9002 28.4581 29.3325 28.105 29.6857C27.7519 30.0388 27.3196 30.2154 26.8081 30.2154ZM31.1919 30.2154C30.6804 30.2154 30.2481 30.0388 29.895 29.6857C29.5419 29.3325 29.3653 28.9002 29.3653 28.3888C29.3653 27.8774 29.5419 27.4451 29.895 27.092C30.2481 26.7388 30.6804 26.5623 31.1919 26.5623C31.7033 26.5623 32.1356 26.7388 32.4887 27.092C32.8418 27.4451 33.0184 27.8774 33.0184 28.3888C33.0184 28.9002 32.8418 29.3325 32.4887 29.6857C32.1356 30.0388 31.7033 30.2154 31.1919 30.2154ZM34.4797 33.1378C33.9682 33.1378 33.5359 32.9613 33.1828 32.6081C32.8297 32.255 32.6531 31.8227 32.6531 31.3113C32.6531 30.7999 32.8297 30.3676 33.1828 30.0144C33.5359 29.6613 33.9682 29.4847 34.4797 29.4847C34.9911 29.4847 35.4234 29.6613 35.7765 30.0144C36.1296 30.3676 36.3062 30.7999 36.3062 31.3113C36.3062 31.8227 36.1296 32.255 35.7765 32.6081C35.4234 32.9613 34.9911 33.1378 34.4797 33.1378ZM25.0912 40.444C24.5432 40.444 24.0834 40.2339 23.7118 39.8135C23.3401 39.3932 23.1546 38.8973 23.155 38.326C23.155 37.6928 23.3713 37.1387 23.8038 36.6638C24.2364 36.1889 24.6655 35.7201 25.0912 35.2574C25.4443 34.8799 25.7487 34.469 26.0045 34.0248C26.2602 33.5806 26.5646 33.1634 26.9177 32.7733C27.1856 32.4567 27.4961 32.1948 27.8493 31.9878C28.2024 31.7808 28.586 31.6771 29 31.6766C29.414 31.6766 29.7976 31.774 30.1507 31.9688C30.5039 32.1637 30.8144 32.4194 31.0823 32.736C31.4232 33.1257 31.7247 33.5458 31.9868 33.9963C32.2488 34.4469 32.5562 34.867 32.9088 35.2566C33.335 35.7194 33.7641 36.1882 34.1962 36.6631C34.6282 37.138 34.8445 37.692 34.845 38.3252C34.845 38.8976 34.6591 39.3939 34.2875 39.8142C33.9159 40.2346 33.4563 40.4445 32.9088 40.444C32.2513 40.444 31.5998 40.3892 30.9544 40.2796C30.309 40.1701 29.6576 40.1153 29 40.1153C28.3424 40.1153 27.691 40.1701 27.0456 40.2796C26.4002 40.3892 25.7487 40.444 25.0912 40.444Z" fill="black"/>
</svg>
